<svg width="1142px" height="409px" viewBox="0 0 1142 409" version="1.1" xmlns="http://www.w3.org/2000/svg" xmlns:xlink="http://www.w3.org/1999/xlink">
    <defs>
        <path d="M278.511065,112.7 C279.911065,116.4 282.111065,119.9 285.311065,122.3 C287.111065,123.7 288.911065,125.7 291.111065,125.3 C320.811065,119.8 304.411065,168.4 312.111065,155.1 C320.011065,141.5 311.811065,187.8 312.511065,189.4 L360.711065,303.9 L360.711065,303.9 L77.9110646,303.9 C54.3110646,303.9 -7.78893541,311.6 0.811064588,289.6 L13.6110646,270 C65.0110646,191.5 107.211065,107.5 139.511065,19.4 L140.711065,16.1 C144.511065,6.4 153.811065,0 164.311065,0 L164.311065,0 C174.411065,0 183.411065,5.8 187.411065,14.8 L190.111065,20.6 L202.011065,43.8 C202.011065,43.8 209.211065,63.7 223.011065,60.7 C224.611065,60.4 226.211065,60 227.811065,59.8 L228.711065,59.7 C243.311065,57 250.811065,64.7 255.311065,73.4 C258.911065,80.3 262.511065,87.1 266.611065,93.6 L278.511065,112.7 Z" id="mountain1-path"></path>
        <path d="M119,10.875 C127.4,-3.625 148.3,-3.625 156.7,10.875 L206.7,97.575 L275.6,216.875 L137.8,216.875 L0,216.875 L68.9,97.575 L119,10.875 Z" id="mountain2-path"></path>
        <path d="M0,61 C24.5,25.4 79.8,0 144.1,0 C205.9,0 259.4,27.6 285.3,61 L0,61 Z" id="mountain3-path"></path>
    </defs>

    <g id="background-footer-animation-new" stroke="none" stroke-width="1" fill="none" fill-rule="evenodd">
        <circle id="sun" fill="#FEAA00" fill-rule="nonzero" cx="592.813476" cy="218" r="74"></circle>
        <g id="mountain1" transform="translate(268.000000, 102.000000)">
            <mask id="mountain1-mask-2" fill="white">
                <use xlink:href="#mountain1-path"></use>
            </mask>
            <use id="mountain1-shape" fill="#ACD6FC" fill-rule="nonzero" xlink:href="#mountain1-path"></use>
            <path d="M302.411065,142.2 C303.611065,144.6 296.011065,246.2 294.411065,267.2 C294.211065,269.4 292.611065,271.2 290.411065,271.7 L170.611065,294.6 C170.311065,294.700407 170.011065,294.700407 169.711065,294.700407 L2.71106459,294.700407 C-8.78893541,294.9 67.3110646,221.4 140.711065,213.4 C141.411065,213.3 140.011065,213.5 140.711065,213.4 C154.211065,211.8 196.511065,216.9 198.011065,207.4 C198.011065,207.1 198.111065,206.8 198.111065,206.5 C199.711065,194.7 208.711065,185.4 220.311065,182.6 C233.811065,179.4 227.311065,166.4 224.311065,152.2 C218.111065,123.4 249.611065,118 259.011065,109 C267.011065,101.4 259.611065,81.4 259.611065,81.4 L259.611065,81.4 C259.611065,81.4 274.111065,107.3 284.411065,120.4 C286.211065,122.7 290.111065,124.2 293.011065,123.6 C294.411065,123.3 296.011065,123.2 297.911065,123.6 C303.311065,124.8 307.811065,131.9 309.411065,134.8 L309.411065,134.9 C311.211065,138.2 308.711065,142.3 304.911065,142.2 L302.411065,142.2" id="mountain1-shape" fill="#3182FF" fill-rule="nonzero" opacity="0.200000003" mask="url(#mountain1-mask-2)"></path>
        </g>
        <g id="mountain2" transform="translate(480.000000, 183.000000)">
            <mask id="mountain2-mask" fill="white">
                <use xlink:href="#mountain2-path"></use>
            </mask>
            <use id="mountain2-shape" fill="#05543D" fill-rule="nonzero" xlink:href="#mountain2-path"></use>
            <path d="M103.1,229.875 C104.2,207.775 103.1,185.475 100,163.375 C98.7,154.675 94.8,143.975 86.1,143.875 C81.2,143.875 77,147.675 75.5,152.275 C73.9,156.775 74.6,161.875 76.2,166.475 C81.7,182.275 98.1,193.675 114.9,193.175 C119.5,192.975 124,192.075 127.6,189.375 C132.3,186.075 134.8,180.375 136.4,174.775 C145.7,142.675 130.5,107.375 106,84.575 C98.5,77.575 88.4,71.175 78.6,73.875 C77.5,74.075 76.4,74.675 75.7,75.575 C75.1,76.575 74.9,77.875 75,79.175 C75.8,95.575 87.3,110.075 101.6,118.175 C115.9,126.375 132.5,129.275 148.8,131.175 C161.7,132.675 176.5,132.975 185.4,123.475 C192.9,115.375 193.2,102.775 190.7,92.075 C186.2,72.775 174.6,55.975 158.1,44.875 C150.8,39.975 139.7,36.675 133.9,43.475 C130.7,47.175 130.4,52.475 131.1,57.275 C133.6,74.975 146.7,90.075 162.3,98.975 C177.9,107.975 215.7,110.075 233.3,113.475" id="mountain2-shape" stroke="#0CB080" stroke-width="4" stroke-linecap="round" mask="url(#mountain2-mask)"></path>
        </g>
        <g id="mountain3" transform="translate(229.000000, 347.000000)">
            <mask id="mountain3-mask" fill="white">
                <use xlink:href="#mountain3-path"></use>
            </mask>
            <use id="mountain3-shape" fill="#FFB5D1" fill-rule="nonzero" xlink:href="#mountain3-path"></use>
            <path d="M242.672852,20.4414566 C240.470009,27.8026714 231.917519,24.7868931 222.650152,45.8955619 C220.714265,49.9133152 216.217857,54.5341722 212.569111,51.9099293 C211.358172,50.7813782 210.535904,49.2800869 210.307407,47.6467501 C208.555221,40.3735224 209.623913,32.6077064 207.185237,25.5039849 C204.746561,18.4002633 196.721385,12.151539 190.15991,15.6653749 C183.839129,18.9741104 182.742309,29.3397742 175.747236,30.9795788 C171.999174,31.8467735 168.222115,29.7057862 164.434725,29.9417493 C159.755746,30.1065242 155.794118,33.6484881 153.710255,37.8338811 C151.626392,42.0192741 151.029756,46.6823231 150.525839,51.3079114 C150.055649,54.9491916 149.62292,58.6831902 147.665503,61.8468145 C145.800804,64.9729781 142.113599,67.3255335 138.582834,66.5949856 C133.862661,65.5900155 131.7452,60.0821701 131.320068,55.2926752 C130.259102,43.857451 134.230192,32.3305068 133.039047,20.8400249 C131.192406,2.38819802 114.6476,-13.4686426 96.1115188,-14.5000042" id="mountain3-shape" stroke="#FE4200" stroke-width="4" stroke-linecap="round" mask="url(#mountain3-mask)"></path>
            <path d="M134.6,64.8 C129.8,70.8 124.6,76.3 118.9,81.5 C115.6,84.5 109.7,87.1 107.3,83.3 C106.6,81.8 106.4,80.1 106.8,78.5 C107.9,71.1 111.8,64.3 112.2,56.8 C112.6,49.3 107.5,40.5 100.1,41.3 C93,42 88.1,51.2 81,50.1 C77.2,49.5 74.5,46.1 70.9,44.9 C66.5,43.3 61.5,45.1 58,48.2 C54.5,51.3 52.2,55.4 50,59.5 C48.2,62.7 46.4,66 43.4,68.2 C40.5,70.4 36.2,71.2 33.2,69.2 C29.2,66.5 29.3,60.6 30.7,56 C34,45 42,35.8 45.2,24.7 C50.4,6.9 41,-14 24.2,-21.9" id="Path" stroke="#FE4200" stroke-width="4" stroke-linecap="round" mask="url(#mountain3-mask)"></path>
        </g>
        <path d="M710.3,310.175 C717.6,303.275 736,303.275 743.4,310.175 L787.3,351.175 L847.986093,408 L727.186093,408 L609.286093,408 L666.5,351.175 L710.3,310.175 Z" id="mountain4" fill="#3182FF" fill-rule="nonzero"></path>
        <g id="moutnain5" transform="translate(457.000000, 327.000000)" fill-rule="nonzero">
            <path d="M0,81 C27.4,34 88.8,0 160.1,0 C231.2,0 293.4,34.3 320.9,81 L0,81 Z" id="moutnain5-shape1" fill="#E8E5DB"></path>
            <path d="M160,0 C231.1,0 293.5,34.3 321,81 L234.6,80.6 C234.6,80.6 247.4,57.2 218.3,35.7 C186.2,12.1 160,0 160,0 Z" id="moutnain5-shape2" fill="#DCD9CB"></path>
        </g>
        <g id="flower1" transform="translate(0.000000, 211.218000)" fill-rule="nonzero">
            <line x1="54.8134763" y1="122.782" x2="54.6015763" y2="196.782" id="flower1_stem" stroke="#05543D" stroke-width="6" fill="#000000"></line>
            <path d="M54.6021763,0 C71.1537763,0 84.5714763,13.443 84.5714763,30.026 C84.5714763,36.325381 82.635288,42.171656 79.3266242,47.000061 C82.6355535,51.829145 84.5714763,57.675051 84.5714763,63.974 C84.5714763,70.273381 82.635288,76.1198 79.3266242,80.948384 C82.635288,85.7772 84.5714763,91.623619 84.5714763,97.923 C84.5714763,114.506 71.1537763,127.949 54.6021763,127.949 C38.0505763,127.949 24.6327763,114.506 24.6327763,97.923 C24.6327763,91.623619 26.5689791,85.7772 29.8776608,80.948616 C26.5689791,76.1198 24.6327763,70.273381 24.6327763,63.974 C24.6327763,57.675051 26.5687136,51.829145 29.8769803,47.000932 C26.5689791,42.171656 24.6327763,36.325381 24.6327763,30.026 C24.6327763,13.443 38.0505763,0 54.6021763,0 Z" id="flower1_petals" fill="#A3CFFF"></path>
            <path d="M54.6019763,163.297 L18.2736763,166.965 L16.2010763,167.174 L16.1784763,167.174 C15.5026763,167.202 14.8211763,167.174 14.1395763,167.106 C13.1370763,167.01 12.1345763,166.812 11.1319763,166.508 C2.84687633,163.997 -1.83352367,155.239 0.678476331,146.938 C3.19047633,138.637 11.9317763,133.953 20.2111763,136.47 C21.2137763,136.775 22.1543763,137.17 23.0442763,137.644 C23.6525763,137.965 24.2270763,138.327 24.7789763,138.716 L24.7958763,138.733 L26.3616763,140.02 L54.6075763,163.303 L54.6019763,163.297 Z" id="flower1_leaf" fill="#05543D"></path>
        </g>
        <g id="flower2" transform="translate(126.540213, 276.001000)">
            <line x1="39.4597869" y1="51.999" x2="39.4002629" y2="131.999" id="flower2_stem" stroke="#3182FF" stroke-width="6" fill="#000000" fill-rule="nonzero"></line>
            <path d="M7.47626288,0 L71.3242629,0 L71.3242629,31.984 C71.3242629,49.636 57.0182629,63.969 39.4002629,63.969 C21.7822629,63.969 7.47626288,49.636 7.47626288,31.984 L7.47626288,0 L7.47626288,0 Z" id="flower2_petals1" fill="#FE4200" fill-rule="nonzero"></path>
            <path d="M59,0 L59,32 C59,43.045695 50.045695,52 39,52 C27.954305,52 19,43.045695 19,32 L19,0 L19,0" id="flower2_petals2" stroke="#FFB5D1" stroke-width="4"></path>
            <path d="M47,0 L47,30 C47,34.418278 43.418278,38 39,38 C34.581722,38 31,34.418278 31,30 L31,0 L31,0" id="flower2_petals3" stroke="#FFB5D1" stroke-width="4"></path>
            <path d="M39.4012629,99.597 L13.1882629,102.244 L11.6902629,102.391 L11.6732629,102.391 C11.1832629,102.408 10.6932629,102.391 10.2032629,102.34 C9.47626288,102.272 8.75526288,102.125 8.03426288,101.905 C2.05926288,100.094 -1.32073712,93.774 0.48726288,87.787 C2.29526288,81.799 8.60326288,78.419 14.5792629,80.231 C15.3002629,80.451 15.9822629,80.733 16.6242629,81.077 C17.0632629,81.308 17.4802629,81.568 17.8802629,81.85 L17.8912629,81.861 L19.0172629,82.787 L39.4012629,99.586 L39.4012629,99.597 Z" id="flower2_leaf1" fill="#3182FF" fill-rule="nonzero"></path>
            <path d="M39.1170479,99.597 L65.3300479,102.244 L66.8280479,102.391 L66.8450479,102.391 C67.3350479,102.408 67.8250479,102.391 68.3150479,102.34 C69.0420479,102.272 69.7630479,102.125 70.4840479,101.905 C76.4590479,100.094 79.8390479,93.774 78.0310479,87.787 C76.2230479,81.799 69.9150479,78.419 63.9390479,80.231 C63.2180479,80.451 62.5360479,80.733 61.8940479,81.077 C61.4550479,81.308 61.0380479,81.568 60.6380479,81.85 L60.6270479,81.861 L59.5010479,82.787 L39.1170479,99.586 L39.1170479,99.597 Z" id="flower2_leaf2" fill="#3182FF" fill-rule="nonzero"></path>
        </g>
        <g id="flower3" transform="translate(838.813476, 280.000000)" fill-rule="nonzero">
            <line x1="41.000004" y1="40" x2="41.000004" y2="128" id="flower3_stem" stroke="#05543D" stroke-width="6" fill="#05543D"></line>
            <path d="M41.000004,59.913 C57.460004,59.913 70.810004,46.501 70.810004,29.956 C70.810004,13.412 57.460004,0 41.000004,0 C24.53,0 11.19,13.412 11.19,29.956 C11.19,46.501 24.53,59.913 41.000004,59.913 Z" id="flower3_petals" fill="#FFB5D1"></path>
            <path d="M41.000004,41.456 C47.320004,41.456 52.440004,36.307 52.440004,29.956 C52.440004,23.605 47.320004,18.456 41.000004,18.456 C34.680004,18.456 29.55,23.605 29.55,29.956 C29.55,36.307 34.680004,41.456 41.000004,41.456 Z" id="flower3_petals" fill="#FE4200"></path>
            <path d="M41,90.681 L15.62,90.681 C6.989,90.681 0,83.658 0,74.988 L0,61.092 L20.5,75.884 L41,90.676 L41,90.681 Z" id="flower3_leaf1" fill="#05543D"></path>
            <path d="M41.000004,90.681 L66.380004,90.681 C75.010004,90.681 81.990004,83.658 81.990004,74.988 L81.990004,61.092 L61.490004,75.884 L40.990004,90.676 L41.000004,90.681 Z" id="flower3_leaf2" fill="#05543D"></path>
        </g>
        <g id="flower4" transform="translate(954.803480, 250.998000)">
            <line x1="41.51" y1="38.034" x2="41.51" y2="157.002" id="flower4_stem" stroke="#FFB5D1" stroke-width="6" fill="#000000" fill-rule="nonzero"></line>
            <path d="M41.5,117.662 L28.37,125.087 C20.99,129.261 11.61,126.659 7.43,119.279 L0,106.149 L13.97,98.255 C20.89,94.34 29.69,96.781 33.61,103.703 L41.5,117.656 L41.5,117.662 Z" id="flower4_leaf1" fill="#FEAA00" fill-rule="nonzero"></path>
            <path d="M35.0088255,115.771 C28.3381706,114.941333 23.3484493,114.063173 20.0396616,113.13652 C16.730874,112.209867 12.5135372,110.509516 7.38765149,108.035468" id="flower4_leaf1_detail" stroke="#FE4200" stroke-width="4"></path>
            <path d="M69.04,98.25 L83,106.141 L75.57,119.27 C71.4,126.65 62.02,129.253 54.63,125.079 L41.5,117.654 L49.39,103.7 C53.31,96.778 62.11,94.337 69.03,98.252 L69.04,98.25 Z" id="flower4_leaf2" fill="#FEAA00" fill-rule="nonzero"></path>
            <path d="M48.3876515,115.771 C55.0583064,114.941333 60.0480277,114.063173 63.3568153,113.13652 C66.665603,112.209867 70.8829398,110.509516 76.0088255,108.035468" id="flower4_leaf2_detail" stroke="#FE4200" stroke-width="4"></path>
            <path d="M41.5,86.214 L28.37,93.639 C20.99,97.813 11.61,95.211 7.43,87.831 L0,74.701 L13.97,66.807 C20.89,62.892 29.69,65.332 33.61,72.255 L41.5,86.208 L41.5,86.214 Z" id="flower4_leaf3" fill="#FEAA00" fill-rule="nonzero"></path>
            <path d="M35.0088255,84.771 C28.3381706,83.9413326 23.3484493,83.0631726 20.0396616,82.13652 C16.730874,81.2098673 12.5135372,79.5095165 7.38765149,77.0354675" id="flower4_leaf3_detail" stroke="#FE4200" stroke-width="4"></path>
            <path d="M69.04,66.806 L83,74.698 L75.57,87.827 C71.4,95.207 62.02,97.809 54.63,93.636 L41.5,86.21 L49.39,72.257 C53.31,65.335 62.11,62.894 69.03,66.809 L69.04,66.806 Z" id="flower4_leaf4" fill="#FEAA00" fill-rule="nonzero"></path>
            <path d="M48.3876515,84.771 C55.0583064,83.9413326 60.0480277,83.0631726 63.3568153,82.13652 C66.665603,81.2098673 70.8829398,79.5095165 76.0088255,77.0354675" id="flower4_leaf4_detail" stroke="#FE4200" stroke-width="4"></path>
            <path d="M41.51,54.772 L28.37,62.197 C20.99,66.371 11.61,63.768 7.43,56.388 L0.01,43.259 L13.97,35.364 C20.9,31.449 29.69,33.89 33.61,40.812 L41.5,54.766 L41.51,54.772 Z" id="flower4_leaf5" fill="#FEAA00" fill-rule="nonzero"></path>
            <path d="M35.0088255,51.771 C28.3381706,50.9413326 23.3484493,50.0631726 20.0396616,49.13652 C16.730874,48.2098673 12.5135372,46.5095165 7.38765149,44.0354675" id="flower4_leaf5_detail" stroke="#FE4200" stroke-width="4"></path>
            <path d="M69.05,35.363 L83,43.254 L75.58,56.384 C71.4,63.764 62.02,66.366 54.64,62.192 L41.5,54.767 L49.4,40.814 C53.31,33.891 62.11,31.451 69.04,35.365 L69.05,35.363 Z" id="flower4_leaf6" fill="#FEAA00" fill-rule="nonzero"></path>
            <path d="M48.3876515,51.771 C55.0583064,50.9413326 60.0480277,50.0631726 63.3568153,49.13652 C66.665603,48.2098673 70.8829398,46.5095165 76.0088255,44.0354675" id="flower4_leaf6_detail" stroke="#FE4200" stroke-width="4"></path>
            <path d="M41.51,43.054 L30.84,32.388 C24.84,26.393 24.84,16.661 30.84,10.666 L41.51,0 L52.85,11.335 C58.47,16.958 58.47,26.086 52.85,31.709 L41.5,43.049 L41.51,43.054 Z" id="flower4_leaf7" fill="#FEAA00" fill-rule="nonzero"></path>
            <line x1="41.7874803" y1="36.1924075" x2="41.7874803" y2="7.57337951" id="flower4_leaf7_detail" stroke="#FE4200" stroke-width="4"></line>
        </g>
        <g id="flower5" transform="translate(1075.186219, 302.518438)" fill-rule="nonzero">
            <line x1="33.1772618" y1="45.5165619" x2="33.1772618" y2="104.481562" id="flower5_stem" stroke="#FFB5D1" stroke-width="6" fill="#000000"></line>
            <path d="M45.6333767,10.5593713 C45.5349023,11.169934 45.3997869,11.7639608 45.1985497,12.3325138 C45.1483627,12.4691201 45.0962541,12.604035 45.0421251,12.7374092 C45.1306061,12.6234755 45.2235369,12.5120347 45.3197932,12.4025138 C45.7172163,11.9541569 46.1646009,11.5392641 46.6589469,11.1630315 C50.739517,8.03527688 56.5442144,8.80124598 59.6261941,12.8831007 C62.7020135,16.9556252 61.8940899,22.7949899 57.8115198,25.9262087 C57.3171737,26.3024412 56.7985264,26.6207648 56.262238,26.8896435 C56.1378503,26.9503094 56.0128069,27.0075909 55.8872658,27.0619744 C56.0229595,27.0468661 56.1604762,27.0349801 56.2988405,27.0262461 C56.891693,26.9793955 57.5013467,27.0034443 58.1154812,27.0797322 C63.1794608,27.7286621 66.728998,32.3806834 66.0474078,37.4812323 C65.3571573,42.5767811 60.6912604,46.1783516 55.6191205,45.5235557 C55.0161463,45.4479377 54.4156913,45.3079562 53.8558966,45.1175491 C53.7185954,45.0726017 53.5809307,45.0230439 53.4444199,44.9700277 C53.5611339,45.061413 53.6750704,45.1574093 53.7870568,45.2567831 C54.2343516,45.6420459 54.6471463,46.0870644 55.0232808,46.5755804 C58.1354207,50.6251959 57.3716381,56.4681062 53.3167091,59.6314493 C49.2551198,62.7863283 43.4457429,62.0684643 40.335603,58.0153846 C39.9525728,57.5226323 39.647492,57.0140878 39.3791261,56.4819511 C39.3873099,56.9088564 39.3647936,57.3416357 39.3074173,57.7762544 C38.6654489,62.9481764 33.959552,66.6190289 28.78413,65.9831226 C23.6193683,65.3487523 19.9425876,60.6371233 20.582556,55.4686655 C20.6496501,54.8959952 20.7714355,54.3452767 20.9390389,53.816659 L20.9870433,53.7680729 C20.57646,54.2192241 20.1179152,54.633447 19.6129088,55.0081437 C15.4257363,58.1205393 9.58891713,57.2702068 6.57009773,53.0989553 C3.54927833,48.931168 4.48948393,43.0226841 8.66849623,39.9044224 C9.11296533,39.5746394 9.57587053,39.290384 10.0530183,39.0452998 L9.67886793,39.0744073 C9.08185523,39.1084636 8.47470153,39.0800847 7.86756703,38.9916725 C2.80794633,38.2551925 -0.66144983,33.544363 0.10642243,28.4543692 C0.88295493,23.3693755 5.60479413,19.8509101 10.6644147,20.5873901 C11.2715492,20.6758023 11.857844,20.82031 12.4131387,21.0185113 C12.5476138,21.0669136 12.6806756,21.1177838 12.8121624,21.171382 C12.7013166,21.0820325 12.5934528,20.9875181 12.4876387,20.8894735 C12.045844,20.4946845 11.6462095,20.0468717 11.275075,19.5496955 C8.22741583,15.4483959 9.08814073,9.61757668 13.204512,6.52781248 C17.3097231,3.43737828 23.107741,4.25491668 26.1559002,8.35535018 C26.5265347,8.85339238 26.8298679,9.36800388 27.0832204,9.90918458 L27.250125,10.2763174 C27.2378168,10.1410557 27.2286948,10.0047756 27.2228229,9.86738588 C27.1875345,9.26850718 27.2237077,8.66585348 27.3048616,8.04529078 C28.036753,2.95761758 32.727291,-0.606632465 37.7890911,0.086072475 C42.8508913,0.778777475 46.3571079,5.46583198 45.6333767,10.5593713 Z" id="flower5_petals1" fill="#3182FF"></path>
            <path d="M33.1772618,45.3005619 C39.7672618,45.3005619 45.1172618,39.9055619 45.1172618,33.2515619 C45.1172618,26.5965619 39.7672618,21.2025619 33.1772618,21.2025619 C26.5872618,21.2025619 21.2372618,26.5965619 21.2372618,33.2515619 C21.2372618,39.9055619 26.5872618,45.3005619 33.1772618,45.3005619 Z" id="flower5_petals2" fill="#FEAA00"></path>
            <path d="M33.1772618,40.2335619 C36.9972618,40.2335619 40.0972618,37.1075619 40.0972618,33.2505619 C40.0972618,29.3935619 36.9972618,26.2675619 33.1772618,26.2675619 C29.3572618,26.2675619 26.2572618,29.3935619 26.2572618,33.2505619 C26.2572618,37.1075619 29.3572618,40.2335619 33.1772618,40.2335619 Z" id="flower5_petals3" fill="#EDE7D3"></path>
        </g>
        <path d="M746.812476,26.5655 C748.174476,26.5655 749.513476,26.6611 750.829476,26.825 C756.103476,11.2291 770.853476,0 788.23348,0 C805.61348,0 820.25348,11.1471 825.57348,26.652 C826.28348,26.6019 826.98348,26.5655 827.70348,26.5655 C843.78348,26.5655 856.813476,39.5932 856.813476,55.6673 C856.813476,71.7414 843.78348,84.7691 827.70348,84.7691 C821.72348,84.7691 816.17348,82.9659 811.55348,79.8741 C808.10348,89.8418 798.64348,97 787.50348,97 C778.173476,97 770.003476,91.9683 765.583476,84.4686 C760.311476,88.2936 753.830476,90.5567 746.816476,90.5567 C729.141476,90.5567 714.813476,76.2312 714.813476,58.5588 C714.813476,40.8864 729.141476,26.5609 746.816476,26.5609 L746.812476,26.5655 Z" id="cloud3" fill="#FFFFFF" fill-rule="nonzero"></path>
        <path d="M234.813476,94.386 L234.711476,94.386 C233.797476,84.8309 226.655476,77.1054 217.410476,75.336 C213.442476,64.6295 203.168476,57 191.120476,57 C178.073476,57 167.107476,65.9431 163.981476,78.0591 C163.389476,77.9931 162.792476,77.9571 162.182476,77.9571 C153.140476,77.9571 145.813476,85.3167 145.813476,94.386 C145.813476,107.425 156.343476,117.994 169.336476,117.994 L211.290476,117.994 C211.637476,117.994 211.983476,117.982 212.330476,117.97 C212.677476,117.988 213.023476,117.994 213.370476,117.994 C225.215476,117.994 234.813476,108.355 234.813476,96.473 C234.813476,96.125 234.801476,95.777 234.789476,95.429 C234.807476,95.082 234.813476,94.734 234.813476,94.386 L234.813476,94.386 Z" id="cloud1" fill="#FFFFFF" fill-rule="nonzero"></path>
        <path d="M1107.81348,187.386 L1107.71348,187.386 C1106.79348,177.831 1099.65348,170.105 1090.41348,168.336 C1086.44348,157.629 1076.17348,150 1064.12348,150 C1051.07348,150 1040.10348,158.943 1036.98348,171.059 C1036.39348,170.993 1035.79348,170.957 1035.18348,170.957 C1026.14348,170.957 1018.81348,178.317 1018.81348,187.386 C1018.81348,200.425 1029.34348,210.994 1042.33348,210.994 L1084.29348,210.994 C1084.63348,210.994 1084.98348,210.982 1085.33348,210.97 C1085.67348,210.988 1086.02348,210.994 1086.37348,210.994 C1098.21348,210.994 1107.81348,201.355 1107.81348,189.473 C1107.81348,189.125 1107.80348,188.777 1107.79348,188.429 C1107.80348,188.082 1107.81348,187.734 1107.81348,187.386 L1107.81348,187.386 Z" id="cloud4" fill="#FFFFFF" fill-rule="nonzero"></path>
        <path d="M382.814476,196.005 C381.452476,196.005 380.113476,196.088 378.797476,196.23 C373.523476,182.724 358.772476,173 341.392476,173 C324.013476,173 309.371476,182.653 304.051476,196.08 C303.345476,196.037 302.639476,196.005 301.924476,196.005 C285.843476,196.005 272.813476,207.287 272.813476,221.207 C272.813476,235.127 285.843476,246.408 301.920476,246.408 C307.900476,246.408 313.451476,244.847 318.074476,242.169 C321.522476,250.801 330.981476,257 342.121476,257 C351.457476,257 359.619476,252.643 364.041476,246.148 C369.315476,249.46 375.796476,251.42 382.810476,251.42 C400.485476,251.42 414.813476,239.015 414.813476,223.711 C414.813476,208.407 400.485476,196.001 382.810476,196.001 L382.814476,196.005 Z" id="cloud2" fill="#FFFFFF" fill-rule="nonzero"></path>
        <path d="M393.855642,279.588924 C395.710981,279.816731 397.442692,278.147242 397.723528,275.860015 C397.897379,274.444114 397.183406,272.276723 395.581611,269.357844 L395.196205,268.670916 L395.196205,268.670916 L394.921505,268.959841 L394.921505,268.959841 L394.399885,269.523995 C392.303629,271.83659 391.171918,273.67361 391.004754,275.035054 C390.723918,277.32228 392.000304,279.361117 393.855642,279.588924 Z" id="raindrop_9" stroke="#3182FF" stroke-width="2" stroke-linejoin="round"></path>
        <path d="M298.855642,314.588924 C300.710981,314.816731 302.442692,313.147242 302.723528,310.860015 C302.897379,309.444114 302.183406,307.276723 300.581611,304.357844 L300.196205,303.670916 L300.196205,303.670916 L299.921505,303.959841 L299.921505,303.959841 L299.399885,304.523995 C297.303629,306.83659 296.171918,308.67361 296.004754,310.035054 C295.723918,312.32228 297.000304,314.361117 298.855642,314.588924 Z" id="raindrop_8" stroke="#3182FF" stroke-width="2" stroke-linejoin="round"></path>
        <path d="M332.855642,315.588924 C334.710981,315.816731 336.442692,314.147242 336.723528,311.860015 C336.897379,310.444114 336.183406,308.276723 334.581611,305.357844 L334.196205,304.670916 L334.196205,304.670916 L333.921505,304.959841 L333.921505,304.959841 L333.399885,305.523995 C331.303629,307.83659 330.171918,309.67361 330.004754,311.035054 C329.723918,313.32228 331.000304,315.361117 332.855642,315.588924 Z" id="raindrop_7" stroke="#3182FF" stroke-width="2" stroke-linejoin="round"></path>
        <path d="M349.855642,291.588924 C351.710981,291.816731 353.442692,290.147242 353.723528,287.860015 C353.897379,286.444114 353.183406,284.276723 351.581611,281.357844 L351.196205,280.670916 L351.196205,280.670916 L350.921505,280.959841 L350.921505,280.959841 L350.399885,281.523995 C348.303629,283.83659 347.171918,285.67361 347.004754,287.035054 C346.723918,289.32228 348.000304,291.361117 349.855642,291.588924 Z" id="raindrop_6" stroke="#3182FF" stroke-width="2" stroke-linejoin="round"></path>
        <path d="M365.855642,313.588924 C367.710981,313.816731 369.442692,312.147242 369.723528,309.860015 C369.897379,308.444114 369.183406,306.276723 367.581611,303.357844 L367.196205,302.670916 L367.196205,302.670916 L366.921505,302.959841 L366.921505,302.959841 L366.399885,303.523995 C364.303629,305.83659 363.171918,307.67361 363.004754,309.035054 C362.723918,311.32228 364.000304,313.361117 365.855642,313.588924 Z" id="raindrop_5" stroke="#3182FF" stroke-width="2" stroke-linejoin="round"></path>
        <path d="M365.855642,272.588924 C367.710981,272.816731 369.442692,271.147242 369.723528,268.860015 C369.897379,267.444114 369.183406,265.276723 367.581611,262.357844 L367.196205,261.670916 L367.196205,261.670916 L366.921505,261.959841 L366.921505,261.959841 L366.399885,262.523995 C364.303629,264.83659 363.171918,266.67361 363.004754,268.035054 C362.723918,270.32228 364.000304,272.361117 365.855642,272.588924 Z" id="raindrop_4" stroke="#3182FF" stroke-width="2" stroke-linejoin="round"></path>
        <path d="M321.855642,289.588924 C323.710981,289.816731 325.442692,288.147242 325.723528,285.860015 C325.897379,284.444114 325.183406,282.276723 323.581611,279.357844 L323.196205,278.670916 L323.196205,278.670916 L322.921505,278.959841 L322.921505,278.959841 L322.399885,279.523995 C320.303629,281.83659 319.171918,283.67361 319.004754,285.035054 C318.723918,287.32228 320.000304,289.361117 321.855642,289.588924 Z" id="raindrop_3" stroke="#3182FF" stroke-width="2" stroke-linejoin="round"></path>
        <path d="M312.855642,268.588924 C314.710981,268.816731 316.442692,267.147242 316.723528,264.860015 C316.897379,263.444114 316.183406,261.276723 314.581611,258.357844 L314.196205,257.670916 L314.196205,257.670916 L313.921505,257.959841 L313.921505,257.959841 L313.399885,258.523995 C311.303629,260.83659 310.171918,262.67361 310.004754,264.035054 C309.723918,266.32228 311.000304,268.361117 312.855642,268.588924 Z" id="raindrop_2" stroke="#3182FF" stroke-width="2" stroke-linejoin="round"></path>
        <path d="M288.855642,280.588924 C290.710981,280.816731 292.442692,279.147242 292.723528,276.860015 C292.897379,275.444114 292.183406,273.276723 290.581611,270.357844 L290.196205,269.670916 L290.196205,269.670916 L289.921505,269.959841 L289.921505,269.959841 L289.399885,270.523995 C287.303629,272.83659 286.171918,274.67361 286.004754,276.035054 C285.723918,278.32228 287.000304,280.361117 288.855642,280.588924 Z" id="raindrop_1" stroke="#3182FF" stroke-width="2" stroke-linejoin="round"></path>
    </g>
</svg>