<svg xmlns="http://www.w3.org/2000/svg" xmlns:xlink="http://www.w3.org/1999/xlink" width="90px" height="90px" viewBox="0 0 90 90" version="1.1">
    <title>icon-sky-blue-1</title>
    <g id="Page-1" stroke="none" stroke-width="1" fill="none" fill-rule="evenodd">
        <g id="icon-sky-blue-1">
            <circle id="Oval" fill="#A3CFFF" fill-rule="nonzero" cx="45" cy="45" r="45"/>
            <path d="M46.494,64.5181 L25,64.5181 L25,45.0988 C25.6498,45.0335 26.3089,45 26.9759,45 C37.7554,45 46.494,53.7385 46.494,64.5181 Z" id="Path" fill="#FFFFFF"/>
            <path d="M44.5181,64.0361 C55.2976,64.0361 64.0361,55.2976 64.0361,44.5181 C64.0361,34.4055 56.3455,26.0892 46.494,25.0988 L46.494,25.024 C46.1707,25.0081 45.8453,25 45.5181,25 C45.3509,25 45.1842,25.0021 45.0181,25.0063 C44.8519,25.0021 44.6852,25 44.5181,25 C33.7385,25 25,33.7385 25,44.5181 C25,55.2976 33.7385,64.0361 44.5181,64.0361 Z" id="Path" fill="#3182FF"/>
            <circle id="Oval" fill="#FFB5D1" fill-rule="nonzero" cx="44.759" cy="44.759" r="9.75904"/>
        </g>
    </g>
</svg>