<svg width="55" height="51" viewBox="0 0 55 51" fill="none" xmlns="http://www.w3.org/2000/svg">
<path d="M2 45.7176C8.44497 37.2815 15.4872 28.9796 18.2025 18.4734C19.3103 14.1869 19.6806 10.1797 17.4889 6.2009C14.151 0.141533 7.43502 0.664502 5.52593 7.59263C1.72234 21.3959 12.8998 52.9421 31.6765 42.7233C38.2146 39.1651 42.3216 32.1233 43.3037 24.8416C44.0387 19.3919 44.0713 10.3204 36.9654 9.2374C32.6588 8.58107 28.8224 12.051 27.437 15.9008C25.3432 21.7197 28.0158 28.8763 30.6272 34.0777C33.1519 39.1065 37.4156 44.1244 42.5691 46.5611C45.9566 48.1627 49.3991 47.995 53 47.995" stroke="#FEAA00" stroke-width="4" stroke-linecap="round"></path>
</svg>