<svg width="1319px" height="646px" viewBox="0 0 1319 646" version="1.1" xmlns="http://www.w3.org/2000/svg" xmlns:xlink="http://www.w3.org/1999/xlink">
    <g id="Page-1" stroke="none" stroke-width="1" fill="none" fill-rule="evenodd">
        <g id="background-title-4" transform="translate(2.243700, 0.760744)">
            <g id="sprite-1" transform="translate(0.000000, 421.888256)">
                <path d="M230.3633,112.501 C230.3633,173.639 179.2983,223.201 116.3073,223.201 C53.3149,223.201 2.25,173.639 2.25,112.501 C2.25,51.363 53.3149,1.801 116.3073,1.801 C179.2983,1.801 230.3633,51.363 230.3633,112.501 Z M118.4443,159.403 C144.5923,159.403 165.7883,138.83 165.7883,113.452 C165.7883,88.074 144.5923,67.501 118.4443,67.501 C92.2963,67.501 71.1003,88.074 71.1003,113.452 C71.1003,138.83 92.2963,159.403 118.4443,159.403 Z" id="donut" fill="#FFB5D1"></path>
                <path d="M195.2753,151.684 C196.2353,154.343 199.1803,155.976 202.2573,155.397 C205.3343,154.818 207.4853,152.231 207.4123,149.4" id="eye" stroke="#000000" stroke-width="3.6" stroke-linecap="round"></path>
                <path d="M171.0003,156.252 C171.9603,158.912 174.9053,160.544 177.9823,159.965 C181.0593,159.386 183.2103,156.799 183.1373,153.968" id="eye" stroke="#000000" stroke-width="3.6" stroke-linecap="round"></path>
                <path d="M196.7613,169.317 C197.3653,172.529 195.7503,174.696 194.2143,174.985 C192.6773,175.274 190.3843,173.842 189.7803,170.63 C189.1753,167.418 190.7913,165.251 192.3273,164.962 C193.8643,164.673 196.1573,166.105 196.7613,169.317 Z" id="mouth" stroke="#000000" stroke-width="3.6" fill="#000000" fill-rule="nonzero"></path>
                <path d="M137.2503,0 C135.6663,4.049 130.3273,15.654 128.2003,19.425 C119.5463,34.767 106.7693,47.247 88.9503,50.575 C72.3123,53.684 56.3603,50.943 39.7,50.85 C32.6194,50.811 22.2047,50.947 15.3,52.65" id="detail-1" stroke="#FE4200" stroke-width="3.6" stroke-linecap="round"></path>
                <path d="M177.7503,15.75 C168.7013,34.753 153.0003,57.114 130.8003,60.75 C121.9963,62.192 113.3533,61.456 104.5003,60.85 C94.9153,60.195 85.1343,61.066 75.8003,63.25 C68.2773,65.011 61.3353,69.778 55.325,74.5 C48.277,80.038 42.3908,86.777 36.925,93.825 C30.1944,102.504 23.2949,109.766 13.775,115.4 C9.2934,118.053 5.1947,119.7 0,119.7" id="detail-2" stroke="#FE4200" stroke-width="3.6" stroke-linecap="round"></path>
                <path d="M9.9001,156.151 C13.5765,149.578 18.0995,144.874 25.7501,143.101 C32.5166,141.533 39.7809,141.388 46.7001,141.301 C52.6687,141.225 59.8975,139.927 65.2503,137.251 C69.3003,135.226 76.0503,129.151 76.0503,129.151" id="detail-3" stroke="#FE4200" stroke-width="3.6" stroke-linecap="round"></path>
            </g>
            <g id="sprite-3" transform="translate(1075.296300, 278.616641)">
                <path d="M33.88,88.1376143 C56.97,22.4906143 128.9,-12.0153857 194.54,11.0686143 L241.09,27.4356143 L207.21,123.783614 C184.13,189.431614 112.2,223.936614 46.55,200.852614 L0,184.485614 L33.88,88.1376143 Z" id="lemon" fill="#FE4200" fill-rule="nonzero"></path>
                <path d="M29.07,154.213614 C28.21,162.306614 35.85,171.332614 47.44,175.229614 C59.02,179.126614 70.56,176.567614 74.77,169.586614" id="mouth" stroke="#000000" stroke-width="3.6" stroke-linecap="round"></path>
                <path d="M57.43,160.220614 C57.06,162.489614 58.5,164.818614 60.91,165.629614 C63.32,166.441614 65.88,165.460614 66.95,163.422614" id="eye" stroke="#000000" stroke-width="3.6" stroke-linecap="round"></path>
                <path d="M38.39,153.814614 C38.01,156.083614 39.46,158.412614 41.87,159.224614 C44.28,160.036614 46.84,159.055614 47.91,157.017614" id="eye" stroke="#000000" stroke-width="3.6" stroke-linecap="round"></path>
                <path d="M100.53,202.696614 C104.42,178.487614 106.22,153.879614 105.92,129.191614 C105.8,119.490614 103.19,106.975614 94.36,105.496614 C89.49,104.683614 84.73,108.210614 82.57,112.946614 C80.42,117.681614 80.5,123.352614 81.49,128.610614 C84.98,146.932614 100.23,162.181614 117.27,164.330614 C121.84,164.899614 126.6,164.606614 130.61,162.318614 C135.82,159.381614 139.08,153.592614 141.43,147.731614 C154.9,114.007614 144.02,72.6036143 122.16,43.5176143 C115.44,34.6156143 106.11,25.8646143 95.74,27.1636143 C94.55,27.2116143 93.42,27.7006143 92.53,28.5486143 C91.78,29.6236143 91.37,30.9486143 91.37,32.3196143 C89.99,50.4756143 99.89,68.2966143 113.25,79.6696143 C126.61,91.0416143 143.09,96.9986143 159.36,101.813614 C172.19,105.609614 187.2,108.397614 197.35,99.4676143 C206.05,91.8286143 207.93,78.0536143 206.77,65.7616143 C204.62,43.8566143 195.01,23.4206143 179.86,8.49461434 C173.06,1.85461434 162.39,-3.49038566 155.6,2.81261434 C151.87,6.28761434 150.89,12.1696143 150.97,17.5876143 C151.22,37.5516143 162.58,56.1426143 177.2,68.6166143 C191.82,81.0906143 209.42,88.3646143 226.86,94.9996143" id="detail" stroke="#FEAA00" stroke-width="3.6" stroke-linecap="round"></path>
            </g>
            <g id="sprite-2" transform="translate(572.833109, -0.000000)">
                <path d="M180.799191,180.449256 L78.608191,205.690256 C74.800191,206.640256 70.787191,206.361256 67.149191,204.893256 C63.510191,203.425256 60.435191,200.843256 58.367191,197.522256 L2.82919098,108.474256 C0.743190983,105.164256 -0.230809017,101.281256 0.0461909834,97.3842557 C0.323190983,93.4875557 1.83819098,89.7794557 4.37219098,86.7954557 L72.252191,6.5908557 C74.773191,3.5968957 78.185191,1.4777157 81.995191,0.539425705 C85.805191,-0.398854295 89.816191,-0.107724295 93.449191,1.3708057 L191.043191,40.7361557 C194.679191,42.1954557 197.755191,44.7658557 199.829191,48.0768557 C201.903191,51.3878557 202.867191,55.2685557 202.583191,59.1598557 L195.116191,163.561256 C194.885191,167.538256 193.365191,171.333256 190.784191,174.378256 C188.203191,177.423256 184.699191,179.553256 180.799191,180.449256 Z" id="pentagon" fill="#A3CFFF" fill-rule="nonzero"></path>
                <path d="M102.618191,21.8191557 L95.725191,28.4379557 C95.232191,28.9110557 95.426191,29.7392557 96.078191,29.9451557 L105.020191,32.7694557" id="eye" stroke="#000000" stroke-width="3.6" stroke-linecap="round"></path>
                <path d="M77.775191,27.2460557 L86.809191,30.3853557 C87.454191,30.6097557 87.625191,31.4432557 87.119191,31.9020557 L80.177191,38.1963557" id="eye" stroke="#000000" stroke-width="3.6" stroke-linecap="round"></path>
                <path d="M66.183191,48.8770557 C66.499191,47.6121557 67.141191,46.4510557 68.044191,45.5082557 C68.948191,44.5654557 70.083191,43.8733557 71.337191,43.5005557 C72.590191,43.1278557 73.920191,43.0871557 75.193191,43.3824557 C76.467191,43.6777557 77.642191,44.2989557 78.601191,45.1846557 C80.541191,47.0930557 81.996191,49.9936557 84.644191,49.7884557 C87.291191,49.5832557 88.200191,46.6792557 89.725191,44.6668557 C90.651191,43.5708557 91.851191,42.7371557 93.203191,42.2493557 C94.555191,41.7615557 96.012191,41.6370557 97.427191,41.8881557 C100.667191,42.4631557 103.763191,45.0519557 106.912191,44.0374557 C108.708191,43.2549557 110.142191,41.8253557 110.927191,40.0349557 C111.713191,38.2652557 112.778191,36.6314557 114.080191,35.1947557 C114.760191,34.5055557 115.655191,34.0682557 116.618191,33.9554557 C117.581191,33.8425557 118.554191,34.0608557 119.375191,34.5742557" id="mouth" stroke="#000000" stroke-width="3.6" stroke-linecap="round"></path>
            </g>
        </g>
    </g>
</svg>